<svg width="397" height="152" viewBox="0 0 397 152" fill="none" xmlns="http://www.w3.org/2000/svg">
<path fill-rule="evenodd" clip-rule="evenodd" d="M102.101 27.3761L82.9151 100.076H64.2541L54.0998 59.9479L44.5068 100.076H25.0493L5.88135 27.3761H26.787L36.8686 69.1397L46.8599 27.3761H64.2541L74.9512 69.2306L85.0873 27.3761H102.101ZM129.559 25.0874V41.8725H108.382V25.0874H129.559ZM129.559 45.9055V100.076H108.382V45.9055H129.559ZM193.307 100.076H172.13V65.979C172.13 63.1632 171.714 61.3829 170.845 60.6017C169.976 59.8206 168.909 59.4211 167.605 59.4211C163.768 59.4211 161.849 62.1276 161.849 67.523V100.076H140.672V45.9055H160.329V53.5716C163.225 47.7404 168.402 44.8157 175.841 44.8157C179.768 44.8157 183.063 45.5784 185.778 47.0863C188.475 48.594 190.411 50.5379 191.57 52.9358C192.728 55.3336 193.307 59.4937 193.307 65.4159V100.076Z" fill="#131510"/>
<path fill-rule="evenodd" clip-rule="evenodd" d="M206.472 100.077V27.3761H243.251C250.89 27.3761 256.465 29.3019 259.976 33.1713C263.469 37.0406 265.225 41.4548 265.225 46.414C265.225 50.0292 264.211 53.2991 262.184 56.2238C260.175 59.1486 257.152 61.165 253.152 62.273C262.51 64.5439 267.18 70.1935 267.18 79.222C267.18 84.6354 265.533 89.4494 262.22 93.7002C258.908 97.9511 251.831 100.077 240.989 100.077H206.472ZM226.889 55.1703H237.26C239.867 55.1703 241.695 54.5162 242.763 53.2082C243.831 51.9004 244.374 50.5016 244.374 49.0119C244.374 44.979 241.876 42.9625 236.88 42.9625H226.889V55.1703ZM226.889 83.945H237.804C240.518 83.945 242.509 83.273 243.776 81.9286C245.043 80.6025 245.677 79.0768 245.677 77.4055C245.677 75.7159 245.062 74.1718 243.831 72.7731C242.6 71.3561 240.337 70.6477 237.061 70.6477H226.889V83.945ZM311.217 80.5661L330.874 81.8923C329.715 87.2333 326.729 91.7747 321.932 95.5351C317.154 99.2955 310.674 101.166 302.511 101.166C293.425 101.166 286.185 98.5325 280.773 93.2644C275.361 87.996 272.664 81.4565 272.664 73.6631C272.664 65.5611 275.325 58.7308 280.664 53.1718C286.004 47.5949 293.135 44.8157 302.04 44.8157C310.656 44.8157 317.625 47.4316 322.946 52.6813C328.267 57.9315 330.928 65.0708 330.928 74.0993C330.928 74.8439 330.91 75.8794 330.874 77.1872H294.818C294.891 80.6208 295.488 83.164 296.628 84.8353C297.751 86.4883 299.905 87.3239 303.09 87.3239C307.706 87.3239 310.403 85.0715 311.217 80.5661ZM309.697 66.5058C309.66 62.8906 308.937 60.4564 307.525 59.2213C306.113 57.9678 304.357 57.35 302.257 57.35C297.298 57.35 294.818 60.4021 294.818 66.5058H309.697ZM360.033 27.3761V100.077H339.181V27.3761H360.033ZM392.016 27.3761V100.077H371.164V27.3761H392.016Z" fill="#131510"/>
<path fill-rule="evenodd" clip-rule="evenodd" d="M38.3676 120.444L40.9051 121.114C40.3752 123.287 39.4228 124.939 38.0469 126.079C36.6714 127.219 34.9888 127.791 32.9991 127.791C30.9424 127.791 29.2687 127.354 27.9777 126.474C26.6866 125.599 25.7073 124.329 25.0353 122.668C24.363 121.002 24.0249 119.22 24.0249 117.312C24.0249 115.232 24.4032 113.417 25.1643 111.868C25.9254 110.318 27.0072 109.141 28.4094 108.336C29.8119 107.531 31.3565 107.131 33.0393 107.131C34.9532 107.131 36.5603 107.638 37.86 108.657C39.1644 109.676 40.0725 111.105 40.5845 112.947L38.1005 113.562C37.6598 112.11 37.0143 111.049 36.1727 110.388C35.3318 109.723 34.2722 109.392 32.9948 109.392C31.5301 109.392 30.3016 109.76 29.3176 110.495C28.3339 111.23 27.6393 112.221 27.2431 113.459C26.8426 114.702 26.6422 115.981 26.6422 117.298C26.6422 118.997 26.8782 120.481 27.3502 121.746C27.8219 123.017 28.5565 123.962 29.5534 124.59C30.5507 125.218 31.6279 125.53 32.7899 125.53C34.2056 125.53 35.3983 125.102 36.3776 124.25C37.3572 123.394 38.0206 122.128 38.3676 120.444ZM59.2176 117.726C59.2176 114.413 60.0723 111.817 61.7772 109.942C63.4821 108.066 65.6812 107.131 68.3788 107.131C70.1459 107.131 71.735 107.573 73.1552 108.452C74.571 109.332 75.6528 110.56 76.396 112.138C77.1395 113.71 77.5134 115.497 77.5134 117.494C77.5134 119.518 77.1215 121.332 76.3381 122.929C75.555 124.529 74.4462 125.739 73.0128 126.558C71.575 127.381 70.0258 127.791 68.3652 127.791C66.5625 127.791 64.9554 127.335 63.5356 126.428C62.1198 125.52 61.0427 124.282 60.3125 122.71C59.5826 121.142 59.2176 119.48 59.2176 117.726ZM61.8351 117.773C61.8351 120.178 62.4538 122.072 63.6913 123.454C64.9288 124.836 66.4824 125.53 68.3522 125.53C70.2571 125.53 71.8199 124.832 73.053 123.436C74.2816 122.04 74.8959 120.057 74.8959 117.489C74.8959 115.865 74.6333 114.446 74.108 113.236C73.5827 112.026 72.8125 111.086 71.8019 110.421C70.787 109.755 69.652 109.42 68.3921 109.42C66.6028 109.42 65.0625 110.062 63.7715 111.347C62.4804 112.631 61.8351 114.771 61.8351 117.773ZM96.6719 127.456V107.466H100.464L104.987 121.616C105.406 122.933 105.708 123.92 105.9 124.576C106.118 123.85 106.461 122.779 106.923 121.37L111.526 107.466H114.914V127.456H112.484V110.733L106.902 127.456H104.622L99.1023 110.425V127.456H96.6719ZM134.932 127.456V107.466H142.152C143.421 107.466 144.391 107.531 145.064 107.657C146.002 107.82 146.79 108.131 147.427 108.587C148.064 109.048 148.575 109.69 148.963 110.514C149.35 111.337 149.542 112.245 149.542 113.236C149.542 114.93 149.025 116.368 147.988 117.54C146.955 118.717 145.081 119.304 142.375 119.304H137.469V127.456H134.932ZM137.469 116.958H142.41C144.048 116.958 145.206 116.642 145.896 116.005C146.581 115.367 146.924 114.474 146.924 113.315C146.924 112.482 146.724 111.766 146.318 111.17C145.914 110.574 145.38 110.179 144.721 109.988C144.293 109.872 143.505 109.811 142.361 109.811H137.469V116.958ZM168.758 127.456V107.466H177.233C178.938 107.466 180.234 107.647 181.12 108.006C182.006 108.364 182.713 108.997 183.243 109.904C183.773 110.811 184.035 111.817 184.035 112.915C184.035 114.334 183.595 115.53 182.718 116.503C181.841 117.475 180.488 118.089 178.653 118.354C179.326 118.689 179.833 119.024 180.18 119.35C180.919 120.057 181.618 120.946 182.273 122.012L185.58 127.456H182.419L179.891 123.296C179.157 122.091 178.546 121.174 178.07 120.537C177.59 119.899 177.162 119.457 176.784 119.201C176.41 118.95 176.023 118.773 175.631 118.671C175.346 118.61 174.879 118.578 174.224 118.578H171.295V127.456H168.758ZM171.295 116.288H176.726C177.883 116.288 178.782 116.163 179.433 115.911C180.082 115.665 180.576 115.265 180.91 114.711C181.249 114.162 181.418 113.566 181.418 112.919C181.418 111.975 181.093 111.193 180.439 110.583C179.784 109.974 178.751 109.672 177.34 109.672H171.295V116.288ZM204.004 127.456V107.466H217.813V109.811H206.541V115.953H217.091V118.299H206.541V125.111H218.267V127.456H204.004ZM236.895 121.035L239.272 120.811C239.384 121.816 239.646 122.64 240.06 123.287C240.474 123.929 241.115 124.45 241.983 124.85C242.851 125.246 243.831 125.446 244.917 125.446C245.883 125.446 246.733 125.297 247.472 124.995C248.211 124.692 248.759 124.278 249.119 123.752C249.48 123.226 249.662 122.654 249.662 122.04C249.662 121.416 249.489 120.872 249.141 120.402C248.794 119.937 248.22 119.545 247.419 119.225C246.907 119.02 245.772 118.694 244.013 118.252C242.255 117.81 241.026 117.396 240.323 117.005C239.41 116.503 238.734 115.879 238.288 115.139C237.839 114.399 237.616 113.566 237.616 112.649C237.616 111.635 237.893 110.691 238.44 109.816C238.987 108.936 239.784 108.271 240.839 107.815C241.89 107.359 243.061 107.131 244.347 107.131C245.763 107.131 247.014 107.368 248.095 107.847C249.177 108.322 250.009 109.025 250.593 109.955C251.176 110.881 251.487 111.933 251.532 113.105L249.101 113.301C248.972 112.04 248.532 111.086 247.779 110.444C247.027 109.797 245.914 109.476 244.445 109.476C242.914 109.476 241.796 109.769 241.097 110.356C240.399 110.942 240.047 111.649 240.047 112.477C240.047 113.194 240.296 113.785 240.79 114.25C241.28 114.711 242.549 115.19 244.605 115.674C246.662 116.163 248.073 116.586 248.839 116.949C249.947 117.484 250.771 118.159 251.3 118.982C251.83 119.802 252.093 120.746 252.093 121.816C252.093 122.882 251.803 123.878 251.22 124.818C250.637 125.758 249.805 126.488 248.714 127.009C247.623 127.531 246.399 127.791 245.033 127.791C243.305 127.791 241.859 127.526 240.692 127C239.522 126.474 238.609 125.683 237.946 124.622C237.278 123.566 236.931 122.37 236.895 121.035ZM270.668 121.035L273.045 120.811C273.157 121.816 273.419 122.64 273.833 123.287C274.247 123.929 274.888 124.45 275.756 124.85C276.624 125.246 277.604 125.446 278.69 125.446C279.656 125.446 280.506 125.297 281.245 124.995C281.984 124.692 282.531 124.278 282.892 123.752C283.253 123.226 283.435 122.654 283.435 122.04C283.435 121.416 283.262 120.872 282.914 120.402C282.567 119.937 281.993 119.545 281.191 119.225C280.679 119.02 279.544 118.694 277.786 118.252C276.028 117.81 274.799 117.396 274.096 117.005C273.183 116.503 272.506 115.879 272.061 115.139C271.612 114.399 271.389 113.566 271.389 112.649C271.389 111.635 271.665 110.691 272.213 109.816C272.76 108.936 273.557 108.271 274.612 107.815C275.663 107.359 276.833 107.131 278.12 107.131C279.535 107.131 280.786 107.368 281.868 107.847C282.95 108.322 283.782 109.025 284.366 109.955C284.948 110.881 285.26 111.933 285.304 113.105L282.874 113.301C282.745 112.04 282.304 111.086 281.552 110.444C280.8 109.797 279.687 109.476 278.218 109.476C276.686 109.476 275.569 109.769 274.87 110.356C274.171 110.942 273.82 111.649 273.82 112.477C273.82 113.194 274.069 113.785 274.563 114.25C275.053 114.711 276.321 115.19 278.378 115.674C280.435 116.163 281.846 116.586 282.611 116.949C283.72 117.484 284.543 118.159 285.073 118.982C285.603 119.802 285.866 120.746 285.866 121.816C285.866 122.882 285.576 123.878 284.993 124.818C284.41 125.758 283.577 126.488 282.487 127.009C281.396 127.531 280.172 127.791 278.806 127.791C277.078 127.791 275.632 127.526 274.465 127C273.294 126.474 272.382 125.683 271.718 124.622C271.051 123.566 270.704 122.37 270.668 121.035ZM304.494 117.726C304.494 114.413 305.349 111.817 307.054 109.942C308.759 108.066 310.958 107.131 313.656 107.131C315.423 107.131 317.012 107.573 318.432 108.452C319.847 109.332 320.929 110.56 321.672 112.138C322.416 113.71 322.79 115.497 322.79 117.494C322.79 119.518 322.398 121.332 321.615 122.929C320.831 124.529 319.723 125.739 318.29 126.558C316.852 127.381 315.302 127.791 313.642 127.791C311.839 127.791 310.232 127.335 308.812 126.428C307.396 125.52 306.319 124.282 305.589 122.71C304.859 121.142 304.494 119.48 304.494 117.726ZM307.112 117.773C307.112 120.178 307.731 122.072 308.968 123.454C310.206 124.836 311.759 125.53 313.629 125.53C315.534 125.53 317.096 124.832 318.329 123.436C319.558 122.04 320.172 120.057 320.172 117.489C320.172 115.865 319.91 114.446 319.384 113.236C318.859 112.026 318.089 111.086 317.079 110.421C316.063 109.755 314.928 109.42 313.669 109.42C311.879 109.42 310.339 110.062 309.048 111.347C307.757 112.631 307.112 114.771 307.112 117.773ZM342.055 127.456V107.466H350.531C352.236 107.466 353.531 107.647 354.417 108.006C355.303 108.364 356.011 108.997 356.54 109.904C357.07 110.811 357.333 111.817 357.333 112.915C357.333 114.334 356.892 115.53 356.015 116.503C355.138 117.475 353.785 118.089 351.951 118.354C352.623 118.689 353.131 119.024 353.478 119.35C354.217 120.057 354.915 120.946 355.57 122.012L358.877 127.456H355.717L353.188 123.296C352.454 122.091 351.844 121.174 351.368 120.537C350.887 119.899 350.459 119.457 350.081 119.201C349.707 118.95 349.32 118.773 348.928 118.671C348.643 118.61 348.176 118.578 347.522 118.578H344.593V127.456H342.055ZM344.593 116.288H350.023C351.181 116.288 352.08 116.163 352.73 115.911C353.38 115.665 353.874 115.265 354.208 114.711C354.546 114.162 354.715 113.566 354.715 112.919C354.715 111.975 354.39 111.193 353.736 110.583C353.082 109.974 352.049 109.672 350.637 109.672H344.593V116.288ZM376.42 121.035L378.797 120.811C378.908 121.816 379.171 122.64 379.585 123.287C379.999 123.929 380.64 124.45 381.508 124.85C382.376 125.246 383.355 125.446 384.442 125.446C385.408 125.446 386.258 125.297 386.997 124.995C387.736 124.692 388.283 124.278 388.644 123.752C389.004 123.226 389.187 122.654 389.187 122.04C389.187 121.416 389.013 120.872 388.666 120.402C388.319 119.937 387.745 119.545 386.943 119.225C386.431 119.02 385.296 118.694 383.538 118.252C381.78 117.81 380.551 117.396 379.848 117.005C378.935 116.503 378.258 115.879 377.813 115.139C377.364 114.399 377.141 113.566 377.141 112.649C377.141 111.635 377.417 110.691 377.965 109.816C378.512 108.936 379.309 108.271 380.364 107.815C381.415 107.359 382.585 107.131 383.872 107.131C385.287 107.131 386.538 107.368 387.62 107.847C388.702 108.322 389.534 109.025 390.117 109.955C390.7 110.881 391.012 111.933 391.056 113.105L388.626 113.301C388.497 112.04 388.056 111.086 387.304 110.444C386.552 109.797 385.439 109.476 383.97 109.476C382.438 109.476 381.321 109.769 380.622 110.356C379.923 110.942 379.572 111.649 379.572 112.477C379.572 113.194 379.821 113.785 380.315 114.25C380.805 114.711 382.073 115.19 384.13 115.674C386.186 116.163 387.598 116.586 388.363 116.949C389.472 117.484 390.295 118.159 390.825 118.982C391.355 119.802 391.617 120.746 391.617 121.816C391.617 122.882 391.328 123.878 390.745 124.818C390.162 125.758 389.329 126.488 388.239 127.009C387.148 127.531 385.924 127.791 384.557 127.791C382.83 127.791 381.383 127.526 380.217 127C379.046 126.474 378.134 125.683 377.47 124.622C376.803 123.566 376.455 122.37 376.42 121.035Z" fill="#131510"/>
</svg>
