<svg width="848" height="225" viewBox="0 0 848 225" fill="none" xmlns="http://www.w3.org/2000/svg">
<path fill-rule="evenodd" clip-rule="evenodd" d="M211.284 5.00733L169.154 164.067H128.178L105.88 76.2703L84.8157 164.067H42.0899L0 5.00733H45.9055L68.0433 96.3808L89.9826 5.00733H128.178L151.667 96.5797L173.924 5.00733H211.284ZM271.577 0V36.7238H225.075V0H271.577ZM271.577 45.5474V164.067H225.075V45.5474H271.577ZM411.559 164.067H365.057V89.4657C365.057 83.305 364.143 79.41 362.235 77.7007C360.327 75.9918 357.983 75.1179 355.121 75.1179C346.695 75.1179 342.482 81.0392 342.482 92.8437V164.067H295.98V45.5474H339.143V62.3199C345.503 49.5619 356.87 43.163 373.205 43.163C381.829 43.163 389.063 44.8317 395.025 48.1308C400.947 51.4295 405.2 55.6825 407.743 60.9288C410.287 66.1748 411.559 75.2766 411.559 88.2336V164.067Z" fill="white"/>
<path fill-rule="evenodd" clip-rule="evenodd" d="M440.466 164.067V5.00726H521.227C538 5.00726 550.242 9.22067 557.952 17.6863C565.623 26.152 569.478 35.8096 569.478 46.6599C569.478 54.5694 567.252 61.7235 562.801 68.1224C558.389 74.5215 551.752 78.9332 542.968 81.3572C563.516 86.3257 573.77 98.6864 573.77 118.44C573.77 130.283 570.153 140.816 562.88 150.116C555.607 159.417 540.066 164.067 516.259 164.067H440.466ZM485.298 65.8175H508.072C513.795 65.8175 517.81 64.3864 520.154 61.5246C522.499 58.6633 523.692 55.6029 523.692 52.3438C523.692 43.5202 518.207 39.1083 507.237 39.1083H485.298V65.8175ZM485.298 128.773H509.265C515.226 128.773 519.598 127.303 522.38 124.361C525.162 121.46 526.553 118.122 526.553 114.465C526.553 110.769 525.202 107.39 522.499 104.33C519.797 101.23 514.828 99.6801 507.635 99.6801H485.298V128.773ZM670.469 121.38L713.632 124.282C711.089 135.967 704.531 145.903 693.999 154.131C683.506 162.358 669.277 166.451 651.352 166.451C631.4 166.451 615.502 160.689 603.619 149.163C591.735 137.636 585.813 123.328 585.813 106.277C585.813 88.5513 591.656 73.6074 603.38 61.445C615.105 49.2434 630.765 43.163 650.319 43.163C669.237 43.163 684.539 48.8861 696.224 60.3719C707.909 71.8586 713.752 87.4784 713.752 107.232C713.752 108.861 713.712 111.126 713.632 113.988H634.461C634.62 121.5 635.931 127.064 638.435 130.721C640.9 134.337 645.629 136.165 652.624 136.165C662.759 136.165 668.681 131.238 670.469 121.38ZM667.131 90.6181C667.051 82.7086 665.462 77.3828 662.362 74.6805C659.261 71.938 655.406 70.5864 650.796 70.5864C639.905 70.5864 634.461 77.264 634.461 90.6181H667.131ZM777.662 5.00726V164.067H731.875V5.00726H777.662ZM847.891 5.00726V164.067H802.104V5.00726H847.891Z" fill="white"/>
<path fill-rule="evenodd" clip-rule="evenodd" d="M71.9433 208.543L77.517 210.016C76.3531 214.796 74.261 218.429 71.2388 220.936C68.2174 223.444 64.5216 224.703 60.1509 224.703C55.6332 224.703 51.9568 223.741 49.121 221.806C46.285 219.882 44.1339 217.088 42.6578 213.435C41.181 209.77 40.4385 205.851 40.4385 201.655C40.4385 197.08 41.2694 193.089 42.9412 189.681C44.6131 186.273 46.9894 183.684 50.0694 181.913C53.1501 180.142 56.5428 179.262 60.2393 179.262C64.4433 179.262 67.9733 180.378 70.8282 182.619C73.6934 184.86 75.6882 188.003 76.8129 192.055L71.3565 193.406C70.3884 190.213 68.9707 187.879 67.1221 186.426C65.2748 184.963 62.9474 184.236 60.1415 184.236C56.9242 184.236 54.2257 185.045 52.0642 186.662C49.9035 188.279 48.3778 190.458 47.5074 193.181C46.6277 195.913 46.1877 198.728 46.1877 201.625C46.1877 205.36 46.7059 208.624 47.7427 211.408C48.7788 214.202 50.3924 216.28 52.5823 217.661C54.7729 219.043 57.139 219.729 59.6913 219.729C62.8012 219.729 65.421 218.787 67.5721 216.915C69.7239 215.031 71.181 212.247 71.9433 208.543ZM117.742 202.566C117.742 195.279 119.619 189.569 123.364 185.444C127.109 181.319 131.94 179.262 137.865 179.262C141.747 179.262 145.237 180.235 148.357 182.169C151.466 184.103 153.843 186.805 155.475 190.275C157.109 193.734 157.93 197.664 157.93 202.054C157.93 206.506 157.069 210.497 155.348 214.008C153.628 217.529 151.192 220.189 148.044 221.99C144.886 223.802 141.483 224.703 137.835 224.703C133.875 224.703 130.345 223.699 127.226 221.704C124.117 219.708 121.751 216.986 120.147 213.527C118.544 210.078 117.742 206.424 117.742 202.566ZM123.491 202.668C123.491 207.959 124.85 212.125 127.568 215.164C130.287 218.204 133.699 219.729 137.807 219.729C141.991 219.729 145.424 218.194 148.132 215.123C150.831 212.053 152.18 207.693 152.18 202.044C152.18 198.472 151.603 195.351 150.45 192.69C149.296 190.029 147.604 187.961 145.384 186.498C143.155 185.035 140.662 184.298 137.894 184.298C133.964 184.298 130.581 185.71 127.745 188.535C124.909 191.359 123.491 196.067 123.491 202.668ZM200.013 223.966V179.999H208.343L218.278 211.122C219.197 214.018 219.862 216.188 220.282 217.631C220.761 216.034 221.515 213.68 222.531 210.579L232.642 179.999H240.083V223.966H234.744V187.184L222.483 223.966H217.476L205.351 186.508V223.966H200.013ZM284.053 223.966V179.999H299.913C302.7 179.999 304.832 180.142 306.309 180.419C308.371 180.777 310.102 181.463 311.5 182.466C312.898 183.479 314.023 184.891 314.873 186.703C315.725 188.514 316.145 190.51 316.145 192.69C316.145 196.415 315.011 199.578 312.732 202.157C310.464 204.746 306.347 206.035 300.402 206.035H289.626V223.966H284.053ZM289.626 200.877H300.48C304.079 200.877 306.621 200.181 308.136 198.779C309.642 197.377 310.396 195.412 310.396 192.864C310.396 191.032 309.956 189.456 309.065 188.146C308.176 186.836 307.003 185.966 305.555 185.546C304.616 185.29 302.886 185.157 300.372 185.157H289.626V200.877ZM358.354 223.966V179.999H376.972C380.717 179.999 383.563 180.398 385.508 181.186C387.454 181.974 389.009 183.367 390.172 185.362C391.336 187.358 391.913 189.569 391.913 191.984C391.913 195.105 390.946 197.735 389.019 199.874C387.092 202.013 384.12 203.364 380.091 203.948C381.568 204.684 382.683 205.421 383.445 206.137C385.068 207.693 386.603 209.648 388.041 211.992L395.306 223.966H388.363L382.81 214.816C381.196 212.166 379.856 210.149 378.81 208.748C377.755 207.345 376.816 206.373 375.985 205.81C375.163 205.258 374.312 204.869 373.451 204.643C372.826 204.51 371.799 204.439 370.362 204.439H363.928V223.966H358.354ZM363.928 199.403H375.858C378.399 199.403 380.374 199.127 381.803 198.574C383.23 198.032 384.315 197.152 385.049 195.934C385.792 194.727 386.164 193.416 386.164 191.994C386.164 189.916 385.45 188.197 384.012 186.856C382.575 185.515 380.306 184.85 377.207 184.85H363.928V199.403ZM435.775 223.966V179.999H466.107V185.157H441.349V198.667H464.523V203.825H441.349V218.808H467.105V223.966H435.775ZM508.023 209.842L513.244 209.351C513.489 211.562 514.066 213.373 514.976 214.796C515.885 216.208 517.293 217.354 519.2 218.234C521.106 219.104 523.258 219.544 525.643 219.544C527.766 219.544 529.634 219.217 531.257 218.552C532.879 217.887 534.082 216.976 534.874 215.819C535.666 214.663 536.067 213.404 536.067 212.053C536.067 210.681 535.685 209.484 534.923 208.451C534.16 207.427 532.899 206.567 531.139 205.862C530.014 205.411 527.521 204.694 523.659 203.722C519.796 202.75 517.098 201.839 515.553 200.979C513.548 199.874 512.061 198.503 511.084 196.876C510.096 195.248 509.607 193.416 509.607 191.4C509.607 189.169 510.214 187.092 511.416 185.167C512.619 183.233 514.37 181.77 516.687 180.766C518.995 179.764 521.567 179.262 524.392 179.262C527.502 179.262 530.249 179.784 532.625 180.838C535.001 181.882 536.83 183.428 538.111 185.475C539.392 187.511 540.076 189.824 540.174 192.403L534.835 192.833C534.551 190.059 533.584 187.961 531.931 186.549C530.278 185.127 527.834 184.421 524.607 184.421C521.243 184.421 518.789 185.065 517.254 186.355C515.719 187.644 514.946 189.2 514.946 191.022C514.946 192.598 515.494 193.898 516.579 194.921C517.655 195.934 520.441 196.988 524.959 198.053C529.477 199.127 532.576 200.058 534.258 200.857C536.693 202.033 538.502 203.518 539.665 205.329C540.829 207.13 541.406 209.208 541.406 211.562C541.406 213.906 540.77 216.096 539.489 218.163C538.208 220.23 536.38 221.837 533.984 222.983C531.588 224.13 528.899 224.703 525.898 224.703C522.104 224.703 518.926 224.119 516.364 222.962C513.793 221.806 511.788 220.066 510.331 217.733C508.864 215.41 508.102 212.78 508.023 209.842ZM582.207 209.842L587.429 209.351C587.674 211.562 588.25 213.373 589.16 214.796C590.069 216.208 591.477 217.354 593.384 218.234C595.291 219.104 597.442 219.544 599.828 219.544C601.95 219.544 603.818 219.217 605.441 218.552C607.064 217.887 608.266 216.976 609.058 215.819C609.85 214.663 610.251 213.404 610.251 212.053C610.251 210.681 609.87 209.484 609.107 208.451C608.344 207.427 607.083 206.567 605.323 205.862C604.198 205.411 601.705 204.694 597.843 203.722C593.981 202.75 591.282 201.839 589.737 200.979C587.732 199.874 586.246 198.503 585.268 196.876C584.281 195.248 583.791 193.416 583.791 191.4C583.791 189.169 584.398 187.092 585.601 185.167C586.803 183.233 588.554 181.77 590.871 180.766C593.179 179.764 595.75 179.262 598.575 179.262C601.685 179.262 604.434 179.784 606.809 180.838C609.185 181.882 611.014 183.428 612.295 185.475C613.576 187.511 614.26 189.824 614.357 192.403L609.019 192.833C608.735 190.059 607.768 187.961 606.115 186.549C604.463 185.127 602.018 184.421 598.792 184.421C595.427 184.421 592.974 185.065 591.438 186.355C589.903 187.644 589.131 189.2 589.131 191.022C589.131 192.598 589.678 193.898 590.763 194.921C591.839 195.934 594.625 196.988 599.143 198.053C603.661 199.127 606.76 200.058 608.442 200.857C610.877 202.033 612.686 203.518 613.85 205.329C615.013 207.13 615.59 209.208 615.59 211.562C615.59 213.906 614.954 216.096 613.673 218.163C612.393 220.23 610.564 221.837 608.169 222.983C605.772 224.13 603.084 224.703 600.082 224.703C596.288 224.703 593.11 224.119 590.548 222.962C587.976 221.806 585.972 220.066 584.515 217.733C583.048 215.41 582.286 212.78 582.207 209.842ZM656.509 202.566C656.509 195.279 658.386 189.569 662.132 185.444C665.877 181.319 670.707 179.262 676.633 179.262C680.515 179.262 684.005 180.235 687.125 182.169C690.234 184.103 692.61 186.805 694.242 190.275C695.876 193.734 696.697 197.664 696.697 202.054C696.697 206.506 695.836 210.497 694.116 214.008C692.395 217.529 689.96 220.189 686.812 221.99C683.653 223.802 680.25 224.703 676.603 224.703C672.643 224.703 669.112 223.699 665.994 221.704C662.884 219.708 660.518 216.986 658.915 213.527C657.311 210.078 656.509 206.424 656.509 202.566ZM662.258 202.668C662.258 207.959 663.618 212.125 666.336 215.164C669.055 218.204 672.467 219.729 676.574 219.729C680.759 219.729 684.191 218.194 686.899 215.123C689.598 212.053 690.948 207.693 690.948 202.044C690.948 198.472 690.37 195.351 689.217 192.69C688.064 190.029 686.371 187.961 684.152 186.498C681.922 185.035 679.429 184.298 676.661 184.298C672.731 184.298 669.348 185.71 666.512 188.535C663.676 191.359 662.258 196.067 662.258 202.668ZM739.015 223.966V179.999H757.632C761.377 179.999 764.223 180.398 766.168 181.186C768.114 181.974 769.669 183.367 770.833 185.362C771.996 187.358 772.573 189.569 772.573 191.984C772.573 195.105 771.605 197.735 769.679 199.874C767.752 202.013 764.78 203.364 760.751 203.948C762.227 204.684 763.343 205.421 764.105 206.137C765.729 207.693 767.263 209.648 768.701 211.992L775.966 223.966H769.023L763.469 214.816C761.857 212.166 760.517 210.149 759.47 208.748C758.414 207.345 757.475 206.373 756.644 205.81C755.822 205.258 754.973 204.869 754.112 204.643C753.486 204.51 752.459 204.439 751.022 204.439H744.588V223.966H739.015ZM744.588 199.403H756.517C759.059 199.403 761.035 199.127 762.462 198.574C763.889 198.032 764.975 197.152 765.709 195.934C766.451 194.727 766.823 193.416 766.823 191.994C766.823 189.916 766.11 188.197 764.672 186.856C763.235 185.515 760.967 184.85 757.866 184.85H744.588V199.403ZM814.499 209.842L819.721 209.351C819.965 211.562 820.542 213.373 821.452 214.796C822.361 216.208 823.768 217.354 825.676 218.234C827.583 219.104 829.734 219.544 832.12 219.544C834.242 219.544 836.109 219.217 837.732 218.552C839.355 217.887 840.558 216.976 841.35 215.819C842.142 214.663 842.543 213.404 842.543 212.053C842.543 210.681 842.162 209.484 841.399 208.451C840.636 207.427 839.375 206.567 837.614 205.862C836.49 205.411 833.997 204.694 830.134 203.722C826.272 202.75 823.573 201.839 822.028 200.979C820.023 199.874 818.537 198.503 817.559 196.876C816.572 195.248 816.083 193.416 816.083 191.4C816.083 189.169 816.69 187.092 817.892 185.167C819.095 183.233 820.845 181.77 823.162 180.766C825.471 179.764 828.042 179.262 830.868 179.262C833.977 179.262 836.725 179.784 839.101 180.838C841.477 181.882 843.306 183.428 844.587 185.475C845.867 187.511 846.552 189.824 846.649 192.403L841.311 192.833C841.027 190.059 840.06 187.961 838.407 186.549C836.754 185.127 834.309 184.421 831.083 184.421C827.719 184.421 825.265 185.065 823.729 186.355C822.194 187.644 821.422 189.2 821.422 191.022C821.422 192.598 821.969 193.898 823.055 194.921C824.131 195.934 826.917 196.988 831.435 198.053C835.952 199.127 839.052 200.058 840.734 200.857C843.169 202.033 844.977 203.518 846.141 205.329C847.304 207.13 847.882 209.208 847.882 211.562C847.882 213.906 847.246 216.096 845.965 218.163C844.684 220.23 842.856 221.837 840.461 222.983C838.064 224.13 835.376 224.703 832.374 224.703C828.579 224.703 825.402 224.119 822.84 222.962C820.268 221.806 818.264 220.066 816.807 217.733C815.34 215.41 814.577 212.78 814.499 209.842Z" fill="white"/>
</svg>
