<svg width="629" height="167" viewBox="0 0 629 167" fill="none" xmlns="http://www.w3.org/2000/svg">
<g clip-path="url(#clip0_23_6)">
<path fill-rule="evenodd" clip-rule="evenodd" d="M156.454 3.70754L125.258 121.476H94.9148L78.4038 56.4716L62.8055 121.476H31.1673L0 3.70754H33.9929L50.3857 71.3617L66.6316 3.70754H94.9148L112.308 71.5089L128.79 3.70754H156.454ZM201.101 0V27.1907H166.667V0H201.101ZM201.101 33.7239V121.476H166.667V33.7239H201.101ZM304.756 121.476H270.322V66.2416C270.322 61.6802 269.646 58.7962 268.233 57.5307C266.82 56.2654 265.085 55.6182 262.965 55.6182C256.726 55.6182 253.605 60.0026 253.605 68.7427V121.476H219.171V33.7239H251.134V46.1424C255.843 36.6963 264.261 31.9585 276.357 31.9585C282.742 31.9585 288.1 33.194 292.514 35.6367C296.9 38.0791 300.048 41.2281 301.932 45.1125C303.815 48.9968 304.756 55.7358 304.756 65.3294V121.476Z" fill="#131510"/>
<path fill-rule="evenodd" clip-rule="evenodd" d="M327.134 121.831V3.19678H386.91C399.325 3.19678 408.386 6.33931 414.092 12.6534C419.77 18.9674 422.623 26.1705 422.623 34.2629C422.623 40.1622 420.975 45.4981 417.681 50.2706C414.416 55.0433 409.503 58.3337 403.002 60.1417C418.211 63.8474 425.801 73.0665 425.801 87.7992C425.801 96.6328 423.124 104.488 417.74 111.425C412.357 118.361 400.855 121.831 383.233 121.831H327.134ZM360.317 48.5515H377.173C381.41 48.5515 384.381 47.4841 386.117 45.3497C387.852 43.2157 388.735 40.9331 388.735 38.5022C388.735 31.9213 384.675 28.6308 376.555 28.6308H360.317V48.5515ZM360.317 95.5062H378.057C382.468 95.5062 385.704 94.4096 387.763 92.2158C389.822 90.0519 390.853 87.5623 390.853 84.835C390.853 82.0779 389.853 79.5583 387.852 77.2759C385.852 74.9636 382.174 73.8076 376.849 73.8076H360.317V95.5062ZM497.373 89.9925L529.321 92.1566C527.437 100.872 522.584 108.283 514.788 114.419C507.022 120.555 496.491 123.608 483.223 123.608C468.456 123.608 456.689 119.31 447.893 110.714C439.097 102.117 434.714 91.4455 434.714 78.7282C434.714 65.5073 439.039 54.3615 447.716 45.2903C456.395 36.1899 467.985 31.6548 482.458 31.6548C496.461 31.6548 507.788 35.9235 516.436 44.4899C525.084 53.0572 529.409 64.7072 529.409 79.44C529.409 80.655 529.38 82.3447 529.321 84.4788H470.72C470.839 90.0818 471.809 94.2318 473.662 96.959C475.487 99.6564 478.988 101.02 484.164 101.02C491.667 101.02 496.05 97.3445 497.373 89.9925ZM494.903 67.0488C494.842 61.1495 493.667 57.1774 491.373 55.1619C489.078 53.1165 486.224 52.1084 482.811 52.1084C474.751 52.1084 470.72 57.0888 470.72 67.0488H494.903ZM576.712 3.19678V121.831H542.822V3.19678H576.712ZM628.694 3.19678V121.831H594.803V3.19678H628.694Z" fill="#131510"/>
<path fill-rule="evenodd" clip-rule="evenodd" d="M53.1608 155.17L57.2874 156.276C56.4256 159.863 54.8768 162.589 52.6393 164.471C50.4024 166.352 47.6661 167.296 44.4303 167.296C41.0857 167.296 38.3638 166.575 36.2644 165.123C34.1647 163.679 32.5722 161.582 31.4793 158.841C30.386 156.091 29.8362 153.15 29.8362 150.001C29.8362 146.568 30.4514 143.573 31.6891 141.016C32.9268 138.458 34.6861 136.515 36.9664 135.187C39.2472 133.858 41.7591 133.198 44.4957 133.198C47.6082 133.198 50.2217 134.035 52.3353 135.716C54.4566 137.398 55.9334 139.757 56.766 142.797L52.7264 143.812C52.0097 141.415 50.96 139.664 49.5914 138.573C48.2239 137.476 46.5007 136.929 44.4234 136.929C42.0414 136.929 40.0436 137.537 38.4434 138.75C36.8436 139.963 35.714 141.599 35.0697 143.642C34.4184 145.693 34.0925 147.804 34.0925 149.978C34.0925 152.782 34.4763 155.231 35.2439 157.319C36.011 159.417 37.2056 160.977 38.8268 162.013C40.4487 163.05 42.2005 163.565 44.0901 163.565C46.3924 163.565 48.332 162.858 49.9246 161.452C51.5177 160.039 52.5965 157.95 53.1608 155.17ZM87.0678 150.684C87.0678 145.216 88.4578 140.932 91.2303 137.837C94.0029 134.741 97.5792 133.198 101.966 133.198C104.84 133.198 107.424 133.927 109.734 135.378C112.036 136.83 113.795 138.857 115.004 141.462C116.213 144.056 116.821 147.006 116.821 150.302C116.821 153.642 116.184 156.636 114.91 159.272C113.636 161.913 111.833 163.91 109.502 165.261C107.164 166.62 104.645 167.296 101.944 167.296C99.0124 167.296 96.3988 166.544 94.0899 165.047C91.7875 163.548 90.0359 161.505 88.8484 158.91C87.6614 156.322 87.0678 153.579 87.0678 150.684ZM91.3245 150.762C91.3245 154.731 92.3306 157.857 94.3431 160.138C96.3556 162.419 98.8821 163.565 101.923 163.565C105.021 163.565 107.562 162.413 109.567 160.109C111.565 157.805 112.564 154.532 112.564 150.293C112.564 147.613 112.137 145.271 111.283 143.274C110.429 141.277 109.176 139.725 107.533 138.628C105.882 137.529 104.037 136.976 101.988 136.976C99.0779 136.976 96.573 138.035 94.4735 140.156C92.3739 142.275 91.3245 145.807 91.3245 150.762ZM147.977 166.743V133.751H154.144L161.5 157.105C162.181 159.278 162.672 160.907 162.984 161.99C163.339 160.792 163.897 159.024 164.648 156.699L172.134 133.751H177.643V166.743H173.692V139.143L164.614 166.743H160.906L151.93 138.634V166.743H147.977ZM210.197 166.743V133.751H221.939C224.002 133.751 225.58 133.858 226.674 134.066C228.2 134.335 229.481 134.848 230.517 135.601C231.553 136.362 232.384 137.421 233.015 138.781C233.644 140.14 233.957 141.638 233.957 143.274C233.957 146.07 233.116 148.443 231.429 150.377C229.75 152.32 226.702 153.289 222.301 153.289H214.323V166.743H210.197ZM214.323 149.417H222.358C225.022 149.417 226.905 148.895 228.027 147.844C229.141 146.791 229.699 145.317 229.699 143.404C229.699 142.029 229.374 140.848 228.714 139.864C228.057 138.88 227.188 138.228 226.117 137.913C225.421 137.722 224.139 137.621 222.279 137.621H214.323V149.417ZM265.206 166.743V133.751H278.989C281.761 133.751 283.869 134.049 285.31 134.642C286.751 135.233 287.901 136.278 288.762 137.774C289.624 139.271 290.05 140.932 290.05 142.744C290.05 145.086 289.335 147.06 287.909 148.666C286.482 150.27 284.282 151.284 281.298 151.721C282.392 152.274 283.217 152.827 283.781 153.365C284.983 154.532 286.12 155.999 287.185 157.758L292.563 166.743H287.422L283.311 159.878C282.118 157.889 281.124 156.375 280.35 155.324C279.569 154.271 278.873 153.541 278.259 153.119C277.65 152.705 277.021 152.412 276.384 152.244C275.92 152.143 275.161 152.091 274.095 152.091H269.332V166.743H265.206ZM269.332 148.311H278.164C280.046 148.311 281.508 148.105 282.566 147.689C283.622 147.283 284.425 146.623 284.968 145.708C285.52 144.802 285.795 143.819 285.795 142.751C285.795 141.193 285.266 139.902 284.202 138.895C283.137 137.89 281.457 137.392 279.163 137.392H269.332V148.311ZM322.525 166.743V133.751H344.981V137.621H326.65V147.758H343.807V151.63H326.65V162.873H345.72V166.743H322.525ZM376.013 156.146L379.879 155.776C380.061 157.435 380.487 158.795 381.16 159.863C381.834 160.922 382.876 161.782 384.288 162.442C385.699 163.096 387.293 163.426 389.059 163.426C390.63 163.426 392.012 163.18 393.214 162.682C394.416 162.182 395.307 161.498 395.892 160.63C396.479 159.762 396.775 158.818 396.775 157.805C396.775 156.775 396.494 155.877 395.928 155.101C395.364 154.334 394.43 153.687 393.128 153.158C392.295 152.82 390.449 152.282 387.589 151.553C384.73 150.823 382.731 150.14 381.588 149.494C380.103 148.666 379.004 147.636 378.279 146.415C377.548 145.193 377.186 143.819 377.186 142.305C377.186 140.631 377.636 139.073 378.526 137.629C379.415 136.177 380.711 135.079 382.427 134.327C384.136 133.574 386.041 133.198 388.132 133.198C390.435 133.198 392.469 133.589 394.227 134.379C395.987 135.163 397.34 136.324 398.289 137.859C399.238 139.387 399.743 141.123 399.816 143.058L395.863 143.381C395.653 141.3 394.938 139.725 393.713 138.666C392.49 137.598 390.68 137.068 388.291 137.068C385.802 137.068 383.983 137.552 382.847 138.521C381.712 139.488 381.139 140.655 381.139 142.021C381.139 143.205 381.544 144.18 382.347 144.947C383.144 145.708 385.208 146.499 388.552 147.298C391.897 148.105 394.191 148.803 395.437 149.402C397.239 150.285 398.579 151.399 399.439 152.757C400.301 154.111 400.729 155.669 400.729 157.435C400.729 159.194 400.257 160.838 399.309 162.39C398.361 163.941 397.008 165.146 395.234 166.006C393.46 166.867 391.469 167.296 389.248 167.296C386.437 167.296 384.086 166.859 382.188 165.991C380.285 165.123 378.801 163.817 377.722 162.066C376.636 160.323 376.072 158.349 376.013 156.146ZM430.936 156.146L434.802 155.776C434.984 157.435 435.41 158.795 436.083 159.863C436.756 160.922 437.799 161.782 439.21 162.442C440.622 163.096 442.216 163.426 443.982 163.426C445.553 163.426 446.935 163.18 448.137 162.682C449.339 162.182 450.228 161.498 450.815 160.63C451.402 159.762 451.698 158.818 451.698 157.805C451.698 156.775 451.417 155.877 450.851 155.101C450.287 154.334 449.353 153.687 448.049 153.158C447.216 152.82 445.371 152.282 442.512 151.553C439.653 150.823 437.654 150.14 436.511 149.494C435.026 148.666 433.925 147.636 433.201 146.415C432.471 145.193 432.109 143.819 432.109 142.305C432.109 140.631 432.557 139.073 433.449 137.629C434.338 136.177 435.634 135.079 437.35 134.327C439.059 133.574 440.962 133.198 443.055 133.198C445.356 133.198 447.39 133.589 449.15 134.379C450.91 135.163 452.263 136.324 453.212 137.859C454.159 139.387 454.666 141.123 454.738 143.058L450.786 143.381C450.576 141.3 449.859 139.725 448.636 138.666C447.413 137.598 445.603 137.068 443.214 137.068C440.723 137.068 438.906 137.552 437.77 138.521C436.633 139.488 436.062 140.655 436.062 142.021C436.062 143.205 436.467 144.18 437.27 144.947C438.067 145.708 440.129 146.499 443.474 147.298C446.82 148.105 449.114 148.803 450.358 149.402C452.162 150.285 453.5 151.399 454.362 152.757C455.224 154.111 455.652 155.669 455.652 157.435C455.652 159.194 455.18 160.838 454.232 162.39C453.284 163.941 451.929 165.146 450.157 166.006C448.382 166.867 446.392 167.296 444.17 167.296C441.36 167.296 439.009 166.859 437.111 165.991C435.207 165.123 433.723 163.817 432.644 162.066C431.559 160.323 430.995 158.349 430.936 156.146ZM485.945 150.684C485.945 145.216 487.336 140.932 490.108 137.837C492.881 134.741 496.457 133.198 500.845 133.198C503.718 133.198 506.302 133.927 508.612 135.378C510.913 136.83 512.672 138.857 513.881 141.462C515.091 144.056 515.699 147.006 515.699 150.302C515.699 153.642 515.061 156.636 513.788 159.272C512.513 161.913 510.711 163.91 508.381 165.261C506.042 166.62 503.522 167.296 500.822 167.296C497.89 167.296 495.277 166.544 492.967 165.047C490.665 163.548 488.913 161.505 487.726 158.91C486.539 156.322 485.945 153.579 485.945 150.684ZM490.203 150.762C490.203 154.731 491.209 157.857 493.221 160.138C495.234 162.419 497.76 163.565 500.801 163.565C503.899 163.565 506.439 162.413 508.444 160.109C510.443 157.805 511.441 154.532 511.441 150.293C511.441 147.613 511.015 145.271 510.16 143.274C509.306 141.277 508.054 139.725 506.411 138.628C504.759 137.529 502.913 136.976 500.866 136.976C497.955 136.976 495.451 138.035 493.351 140.156C491.252 142.275 490.203 145.807 490.203 150.762ZM547.028 166.743V133.751H560.812C563.585 133.751 565.691 134.049 567.132 134.642C568.573 135.233 569.724 136.278 570.584 137.774C571.446 139.271 571.874 140.932 571.874 142.744C571.874 145.086 571.157 147.06 569.731 148.666C568.304 150.27 566.104 151.284 563.121 151.721C564.214 152.274 565.04 152.827 565.605 153.365C566.807 154.532 567.942 155.999 569.007 157.758L574.385 166.743H569.246L565.133 159.878C563.939 157.889 562.947 156.375 562.173 155.324C561.391 154.271 560.695 153.541 560.08 153.119C559.472 152.705 558.843 152.412 558.205 152.244C557.742 152.143 556.982 152.091 555.919 152.091H551.156V166.743H547.028ZM551.156 148.311H559.986C561.869 148.311 563.331 148.105 564.388 147.689C565.445 147.283 566.249 146.623 566.792 145.708C567.342 144.802 567.616 143.819 567.616 142.751C567.616 141.193 567.088 139.902 566.024 138.895C564.961 137.89 563.281 137.392 560.985 137.392H551.156V148.311ZM602.914 156.146L606.779 155.776C606.96 157.435 607.388 158.795 608.061 159.863C608.734 160.922 609.777 161.782 611.188 162.442C612.6 163.096 614.192 163.426 615.959 163.426C617.53 163.426 618.913 163.18 620.115 162.682C621.316 162.182 622.206 161.498 622.793 160.63C623.378 159.762 623.676 158.818 623.676 157.805C623.676 156.775 623.393 155.877 622.829 155.101C622.264 154.334 621.331 153.687 620.027 153.158C619.194 152.82 617.348 152.282 614.489 151.553C611.63 150.823 609.632 150.14 608.489 149.494C607.004 148.666 605.903 147.636 605.179 146.415C604.449 145.193 604.086 143.819 604.086 142.305C604.086 140.631 604.535 139.073 605.426 137.629C606.316 136.177 607.612 135.079 609.328 134.327C611.037 133.574 612.94 133.198 615.033 133.198C617.334 133.198 619.368 133.589 621.128 134.379C622.887 135.163 624.24 136.324 625.188 137.859C626.137 139.387 626.644 141.123 626.715 143.058L622.764 143.381C622.554 141.3 621.837 139.725 620.614 138.666C619.391 137.598 617.581 137.068 615.192 137.068C612.701 137.068 610.884 137.552 609.747 138.521C608.611 139.488 608.04 140.655 608.04 142.021C608.04 143.205 608.445 144.18 609.248 144.947C610.045 145.708 612.107 146.499 615.452 147.298C618.796 148.105 621.092 148.803 622.336 149.402C624.139 150.285 625.478 151.399 626.34 152.757C627.202 154.111 627.628 155.669 627.628 157.435C627.628 159.194 627.158 160.838 626.21 162.39C625.262 163.941 623.907 165.146 622.134 166.006C620.36 166.867 618.37 167.296 616.147 167.296C613.338 167.296 610.985 166.859 609.089 165.991C607.184 165.123 605.701 163.817 604.621 162.066C603.537 160.323 602.971 158.349 602.914 156.146Z" fill="#131510"/>
</g>
<defs>
<clipPath id="clip0_23_6">
<rect width="629" height="167" fill="white"/>
</clipPath>
</defs>
</svg>
