<svg width="240" height="83" viewBox="0 0 240 83" fill="none" xmlns="http://www.w3.org/2000/svg">
<path fill-rule="evenodd" clip-rule="evenodd" d="M63.4638 13.4511L52.2771 55.8402H41.3965L35.4758 32.4428L29.8824 55.8402H18.5373L7.36108 13.4511H19.5505L25.4288 37.8022L31.2544 13.4511H41.3965L47.6336 37.8552L53.5437 13.4511H63.4638ZM79.4738 12.1167V21.9035H67.1261V12.1167H79.4738ZM79.4738 24.2551V55.8402H67.1261V24.2551H79.4738ZM116.643 55.8402H104.296V35.9593C104.296 34.3175 104.053 33.2795 103.546 32.824C103.04 32.3685 102.418 32.1356 101.657 32.1356C99.42 32.1356 98.3011 33.7137 98.3011 36.8596V55.8402H85.9534V24.2551H97.4148V28.7249C99.1034 25.3249 102.122 23.6196 106.459 23.6196C108.749 23.6196 110.67 24.0643 112.253 24.9436C113.826 25.8226 114.955 26.9561 115.63 28.3542C116.306 29.7523 116.643 32.1779 116.643 35.631V55.8402Z" fill="white"/>
<path fill-rule="evenodd" clip-rule="evenodd" d="M124.319 55.8408V13.4511H145.764C150.218 13.4511 153.469 14.574 155.516 16.8301C157.553 19.0862 158.576 21.66 158.576 24.5516C158.576 26.6595 157.985 28.5661 156.803 30.2714C155.632 31.9767 153.869 33.1524 151.537 33.7985C156.993 35.1225 159.716 38.4167 159.716 43.6809C159.716 46.8373 158.756 49.6442 156.824 52.1227C154.893 54.6013 150.767 55.8408 144.445 55.8408H124.319ZM136.224 29.6571H142.271C143.791 29.6571 144.857 29.2757 145.48 28.513C146.102 27.7505 146.419 26.9349 146.419 26.0663C146.419 23.7149 144.962 22.5391 142.049 22.5391H136.224V29.6571ZM136.224 46.4347H142.588C144.171 46.4347 145.331 46.0429 146.07 45.259C146.809 44.4858 147.179 43.5962 147.179 42.6218C147.179 41.6366 146.82 40.7363 146.102 39.9207C145.384 39.0945 144.065 38.6815 142.155 38.6815H136.224V46.4347ZM185.393 44.4646L196.854 45.2379C196.179 48.3521 194.438 51 191.641 53.1926C188.855 55.3852 185.076 56.4758 180.317 56.4758C175.019 56.4758 170.798 54.9403 167.642 51.8686C164.486 48.7968 162.914 44.9838 162.914 40.4397C162.914 35.7157 164.465 31.7331 167.578 28.4918C170.692 25.2401 174.85 23.6196 180.042 23.6196C185.066 23.6196 189.129 25.1449 192.232 28.2058C195.334 31.2671 196.886 35.4298 196.886 40.694C196.886 41.1282 196.875 41.7319 196.854 42.4945H175.831C175.874 44.4965 176.222 45.9794 176.887 46.9538C177.541 47.9177 178.797 48.4049 180.654 48.4049C183.346 48.4049 184.918 47.0916 185.393 44.4646ZM184.507 36.2665C184.485 34.1586 184.064 32.7393 183.24 32.0191C182.417 31.2882 181.393 30.928 180.169 30.928C177.277 30.928 175.831 32.7076 175.831 36.2665H184.507ZM213.856 13.4511V55.8408H201.698V13.4511H213.856ZM232.504 13.4511V55.8408H220.346V13.4511H232.504Z" fill="white"/>
<path fill-rule="evenodd" clip-rule="evenodd" d="M26.303 67.7162L27.7825 68.1068C27.4735 69.3738 26.9182 70.3371 26.116 71.0018C25.314 71.6665 24.3329 72 23.1728 72C21.9736 72 20.9977 71.7452 20.2449 71.2321C19.4921 70.7219 18.9211 69.9814 18.5293 69.0129C18.1373 68.0415 17.9402 67.0025 17.9402 65.89C17.9402 64.6772 18.1608 63.6189 18.6045 62.7158C19.0483 61.812 19.6791 61.1257 20.4967 60.6564C21.3144 60.187 22.215 59.9538 23.1962 59.9538C24.3121 59.9538 25.2492 60.2494 26.007 60.8435C26.7676 61.4377 27.2971 62.2709 27.5956 63.3449L26.1472 63.7035C25.8903 62.8569 25.5139 62.2382 25.0232 61.8528C24.5329 61.4651 23.9151 61.2721 23.1703 61.2721C22.3162 61.2721 21.5999 61.4867 21.0262 61.9152C20.4526 62.3438 20.0476 62.9216 19.8166 63.6434C19.5831 64.3682 19.4663 65.1139 19.4663 65.8818C19.4663 66.8725 19.6039 67.7377 19.8791 68.4753C20.1541 69.2164 20.5824 69.7674 21.1637 70.1336C21.7452 70.4997 22.3733 70.6817 23.0508 70.6817C23.8762 70.6817 24.5717 70.4321 25.1427 69.9353C25.7138 69.4362 26.1007 68.6981 26.303 67.7162ZM38.46 66.1314C38.46 64.1997 38.9583 62.686 39.9524 61.5928C40.9465 60.4989 42.2287 59.9538 43.8016 59.9538C44.8319 59.9538 45.7585 60.2115 46.5866 60.724C47.4121 61.2371 48.0428 61.9531 48.4762 62.8732C48.9097 63.7898 49.1277 64.8317 49.1277 65.9961C49.1277 67.1763 48.8992 68.2339 48.4424 69.1651C47.9858 70.098 47.3393 70.8035 46.5035 71.2811C45.6652 71.7609 44.7619 72 43.7937 72C42.7426 72 41.8055 71.7341 40.9777 71.2053C40.1522 70.6758 39.5241 69.954 39.0984 69.0374C38.6728 68.1232 38.46 67.1541 38.46 66.1314ZM39.9862 66.1588C39.9862 67.5611 40.3469 68.6654 41.0685 69.4712C41.79 70.277 42.6959 70.6817 43.7861 70.6817C44.8968 70.6817 45.808 70.2747 46.527 69.4607C47.2433 68.6467 47.6015 67.4905 47.6015 65.9932C47.6015 65.0463 47.4484 64.2189 47.1421 63.5134C46.8358 62.8079 46.3867 62.2598 45.7975 61.8721C45.2057 61.4837 44.544 61.2884 43.8093 61.2884C42.7661 61.2884 41.868 61.6627 41.1152 62.412C40.3624 63.1607 39.9862 64.4084 39.9862 66.1588ZM60.2984 71.8047V60.1491H62.5095L65.1467 68.3995C65.391 69.1674 65.5671 69.7429 65.6791 70.1254C65.8062 69.7021 66.0062 69.0776 66.2755 68.2561L68.9594 60.1491H70.9348V71.8047H69.518V62.054L66.2633 71.8047H64.9339L61.7155 61.8744V71.8047H60.2984ZM82.6067 71.8047V60.1491H86.8165C87.5564 60.1491 88.122 60.187 88.5144 60.2605C89.0613 60.3555 89.5208 60.5368 89.8922 60.8027C90.2636 61.0715 90.5615 61.4458 90.7878 61.9263C91.0134 62.4062 91.1254 62.9356 91.1254 63.5134C91.1254 64.5011 90.8239 65.3396 90.2193 66.0229C89.617 66.7092 88.5243 67.0515 86.9465 67.0515H84.086V71.8047H82.6067ZM84.086 65.6836H86.9669C87.922 65.6836 88.5972 65.4993 88.9995 65.1279C89.3989 64.7559 89.5989 64.2352 89.5989 63.5595C89.5989 63.0738 89.4823 62.6563 89.2456 62.3088C89.01 61.9613 88.6986 61.731 88.3144 61.6196C88.0648 61.552 87.6054 61.5164 86.9384 61.5164H84.086V65.6836ZM102.33 71.8047V60.1491H107.271C108.265 60.1491 109.021 60.2546 109.538 60.464C110.054 60.6727 110.466 61.0418 110.775 61.5706C111.084 62.0995 111.237 62.686 111.237 63.3262C111.237 64.1536 110.981 64.851 110.469 65.4183C109.958 65.985 109.169 66.343 108.099 66.4976C108.492 66.6929 108.787 66.8882 108.989 67.0783C109.42 67.4905 109.828 68.0089 110.21 68.6304L112.138 71.8047H110.295L108.821 69.3791C108.393 68.6765 108.037 68.1418 107.759 67.7704C107.479 67.3984 107.23 67.1407 107.009 66.9914C106.791 66.8451 106.566 66.7419 106.337 66.6824C106.171 66.6468 105.899 66.6282 105.517 66.6282H103.809V71.8047H102.33ZM103.809 65.2929H106.976C107.65 65.2929 108.174 65.2201 108.554 65.0731C108.932 64.9297 109.22 64.6965 109.415 64.3734C109.613 64.0533 109.711 63.7058 109.711 63.3286C109.711 62.7782 109.522 62.3222 109.14 61.9665C108.759 61.6114 108.156 61.4353 107.334 61.4353H103.809V65.2929ZM122.881 71.8047V60.1491H130.932V61.5164H124.36V65.0976H130.511V66.4655H124.36V70.4374H131.197V71.8047H122.881ZM142.058 68.0608L143.444 67.9302C143.51 68.5161 143.662 68.9966 143.904 69.3738C144.145 69.7482 144.519 70.0519 145.025 70.2852C145.531 70.5161 146.102 70.6327 146.736 70.6327C147.299 70.6327 147.794 70.5458 148.225 70.3697C148.656 70.1931 148.976 69.9517 149.186 69.645C149.396 69.3383 149.502 69.0048 149.502 68.6468C149.502 68.2829 149.401 67.9657 149.199 67.6917C148.996 67.4206 148.662 67.192 148.194 67.0054C147.896 66.8859 147.234 66.6958 146.209 66.4381C145.184 66.1804 144.467 65.939 144.057 65.711C143.525 65.4183 143.131 65.0545 142.87 64.623C142.609 64.1915 142.479 63.7058 142.479 63.1711C142.479 62.5799 142.64 62.0295 142.959 61.5193C143.278 61.0062 143.743 60.6185 144.358 60.3526C144.971 60.0867 145.653 59.9538 146.403 59.9538C147.229 59.9538 147.958 60.092 148.589 60.3712C149.22 60.6482 149.705 61.0581 150.045 61.6004C150.385 62.1403 150.566 62.7537 150.593 63.437L149.175 63.5513C149.1 62.8161 148.843 62.2598 148.404 61.8855C147.966 61.5082 147.317 61.3211 146.46 61.3211C145.568 61.3211 144.916 61.4919 144.508 61.8342C144.101 62.1758 143.896 62.5881 143.896 63.0709C143.896 63.4889 144.041 63.8335 144.329 64.1046C144.615 64.3734 145.355 64.6527 146.554 64.9349C147.753 65.2201 148.576 65.4667 149.022 65.6783C149.668 65.9903 150.149 66.3839 150.457 66.8637C150.766 67.3418 150.92 67.8923 150.92 68.5161C150.92 69.1377 150.751 69.7184 150.411 70.2665C150.071 70.8146 149.586 71.2402 148.95 71.544C148.313 71.8484 147.6 72 146.803 72C145.796 72 144.953 71.8455 144.272 71.5388C143.59 71.2321 143.058 70.7709 142.671 70.1522C142.282 69.5365 142.079 68.8392 142.058 68.0608ZM161.75 68.0608L163.136 67.9302C163.202 68.5161 163.354 68.9966 163.596 69.3738C163.837 69.7482 164.211 70.0519 164.717 70.2852C165.223 70.5161 165.794 70.6327 166.428 70.6327C166.991 70.6327 167.486 70.5458 167.917 70.3697C168.348 70.1931 168.667 69.9517 168.878 69.645C169.088 69.3383 169.194 69.0048 169.194 68.6468C169.194 68.2829 169.093 67.9657 168.891 67.6917C168.688 67.4206 168.354 67.192 167.886 67.0054C167.587 66.8859 166.926 66.6958 165.901 66.4381C164.876 66.1804 164.159 65.939 163.749 65.711C163.217 65.4183 162.822 65.0545 162.562 64.623C162.301 64.1915 162.171 63.7058 162.171 63.1711C162.171 62.5799 162.332 62.0295 162.651 61.5193C162.97 61.0062 163.435 60.6185 164.05 60.3526C164.663 60.0867 165.345 59.9538 166.095 59.9538C166.92 59.9538 167.65 60.092 168.281 60.3712C168.912 60.6482 169.397 61.0581 169.737 61.6004C170.076 62.1403 170.258 62.7537 170.284 63.437L168.867 63.5513C168.792 62.8161 168.535 62.2598 168.096 61.8855C167.658 61.5082 167.009 61.3211 166.152 61.3211C165.259 61.3211 164.608 61.4919 164.2 61.8342C163.793 62.1758 163.588 62.5881 163.588 63.0709C163.588 63.4889 163.733 63.8335 164.021 64.1046C164.307 64.3734 165.046 64.6527 166.246 64.9349C167.445 65.2201 168.268 65.4667 168.714 65.6783C169.36 65.9903 169.84 66.3839 170.149 66.8637C170.458 67.3418 170.612 67.8923 170.612 68.5161C170.612 69.1377 170.443 69.7184 170.103 70.2665C169.763 70.8146 169.277 71.2402 168.642 71.544C168.005 71.8484 167.292 72 166.495 72C165.488 72 164.645 71.8455 163.964 71.5388C163.281 71.2321 162.75 70.7709 162.362 70.1522C161.974 69.5365 161.771 68.8392 161.75 68.0608ZM181.473 66.1314C181.473 64.1997 181.972 62.686 182.966 61.5928C183.96 60.4989 185.242 59.9538 186.815 59.9538C187.846 59.9538 188.772 60.2115 189.6 60.724C190.425 61.2371 191.056 61.9531 191.489 62.8732C191.923 63.7898 192.141 64.8317 192.141 65.9961C192.141 67.1763 191.912 68.2339 191.456 69.1651C190.999 70.098 190.353 70.8035 189.517 71.2811C188.679 71.7609 187.775 72 186.807 72C185.756 72 184.819 71.7341 183.991 71.2053C183.165 70.6758 182.537 69.954 182.112 69.0374C181.686 68.1232 181.473 67.1541 181.473 66.1314ZM183 66.1588C183 67.5611 183.361 68.6654 184.082 69.4712C184.804 70.277 185.709 70.6817 186.8 70.6817C187.91 70.6817 188.821 70.2747 189.54 69.4607C190.257 68.6467 190.615 67.4905 190.615 65.9932C190.615 65.0463 190.462 64.2189 190.155 63.5134C189.849 62.8079 189.4 62.2598 188.811 61.8721C188.219 61.4837 187.557 61.2884 186.823 61.2884C185.779 61.2884 184.881 61.6627 184.128 62.412C183.376 63.1607 183 64.4084 183 66.1588ZM203.374 71.8047V60.1491H208.316C209.31 60.1491 210.065 60.2546 210.582 60.464C211.098 60.6727 211.511 61.0418 211.82 61.5706C212.129 62.0995 212.282 62.686 212.282 63.3262C212.282 64.1536 212.025 64.851 211.513 65.4183C211.002 65.985 210.213 66.343 209.144 66.4976C209.536 66.6929 209.832 66.8882 210.034 67.0783C210.465 67.4905 210.872 68.0089 211.254 68.6304L213.182 71.8047H211.34L209.865 69.3791C209.437 68.6765 209.082 68.1418 208.804 67.7704C208.524 67.3984 208.274 67.1407 208.054 66.9914C207.835 66.8451 207.61 66.7419 207.381 66.6824C207.215 66.6468 206.943 66.6282 206.561 66.6282H204.854V71.8047H203.374ZM204.854 65.2929H208.02C208.695 65.2929 209.219 65.2201 209.598 65.0731C209.977 64.9297 210.265 64.6965 210.46 64.3734C210.657 64.0533 210.755 63.7058 210.755 63.3286C210.755 62.7782 210.566 62.3222 210.185 61.9665C209.803 61.6114 209.201 61.4353 208.378 61.4353H204.854V65.2929ZM223.411 68.0608L224.797 67.9302C224.862 68.5161 225.015 68.9966 225.256 69.3738C225.498 69.7482 225.872 70.0519 226.378 70.2852C226.884 70.5161 227.455 70.6327 228.088 70.6327C228.652 70.6327 229.147 70.5458 229.578 70.3697C230.009 70.1931 230.328 69.9517 230.538 69.645C230.748 69.3383 230.855 69.0048 230.855 68.6468C230.855 68.2829 230.754 67.9657 230.551 67.6917C230.349 67.4206 230.014 67.192 229.547 67.0054C229.248 66.8859 228.586 66.6958 227.561 66.4381C226.536 66.1804 225.82 65.939 225.41 65.711C224.877 65.4183 224.483 65.0545 224.223 64.623C223.961 64.1915 223.831 63.7058 223.831 63.1711C223.831 62.5799 223.992 62.0295 224.312 61.5193C224.631 61.0062 225.096 60.6185 225.711 60.3526C226.323 60.0867 227.006 59.9538 227.756 59.9538C228.581 59.9538 229.311 60.092 229.941 60.3712C230.572 60.6482 231.057 61.0581 231.397 61.6004C231.737 62.1403 231.919 62.7537 231.945 63.437L230.528 63.5513C230.453 62.8161 230.196 62.2598 229.757 61.8855C229.319 61.5082 228.67 61.3211 227.813 61.3211C226.92 61.3211 226.269 61.4919 225.861 61.8342C225.454 62.1758 225.249 62.5881 225.249 63.0709C225.249 63.4889 225.394 63.8335 225.682 64.1046C225.968 64.3734 226.707 64.6527 227.906 64.9349C229.105 65.2201 229.929 65.4667 230.375 65.6783C231.021 65.9903 231.501 66.3839 231.81 66.8637C232.119 67.3418 232.272 67.8923 232.272 68.5161C232.272 69.1377 232.103 69.7184 231.763 70.2665C231.424 70.8146 230.938 71.2402 230.302 71.544C229.666 71.8484 228.953 72 228.155 72C227.148 72 226.305 71.8455 225.625 71.5388C224.942 71.2321 224.41 70.7709 224.023 70.1522C223.634 69.5365 223.431 68.8392 223.411 68.0608Z" fill="white"/>
</svg>
